<svg width="24" height="24" fill="none" xmlns="http://www.w3.org/2000/svg"><mask id="a" fill="#fff"><path fill-rule="evenodd" clip-rule="evenodd" d="M2 7.151v8.85a3 3 0 003 3h14a3 3 0 003-3v-8.85l-7.272 7.272a3.857 3.857 0 01-5.455 0L2 7.151zm19.573-1.5a.86.86 0 01-.202.312l-7.552 7.552a2.571 2.571 0 01-3.637 0L2.631 5.963a.86.86 0 01-.203-.313A2.57 2.57 0 014.572 4.5h14.857a2.57 2.57 0 012.144 1.15z"/></mask><path fill-rule="evenodd" clip-rule="evenodd" d="M2 7.151v8.85a3 3 0 003 3h14a3 3 0 003-3v-8.85l-7.272 7.272a3.857 3.857 0 01-5.455 0L2 7.151zm19.573-1.5a.86.86 0 01-.202.312l-7.552 7.552a2.571 2.571 0 01-3.637 0L2.631 5.963a.86.86 0 01-.203-.313A2.57 2.57 0 014.572 4.5h14.857a2.57 2.57 0 012.144 1.15z" fill="#fff"/><path d="M2 7.151l.354-.353-.854-.854v1.207H2zm20 .001h.5V5.945l-.853.853.353.354zm-7.272 7.272l.354.354-.354-.354zm-5.455 0l-.353.354.353-.354zm12.098-8.46l.353.353-.353-.354zm.202-.313l.469.172.087-.238-.14-.21-.416.276zm-7.754 7.864l-.354-.354.354.354zm-3.637 0l-.353.354.353-.354zM2.631 5.963l.353-.353-.353.353zm-.203-.313l-.416-.276-.14.21.087.238.47-.172zM2.5 16V7.151h-1v8.85h1zM5 18.5A2.5 2.5 0 012.5 16h-1A3.5 3.5 0 005 19.5v-1zm14 0H5v1h14v-1zm2.5-2.5a2.5 2.5 0 01-2.5 2.5v1a3.5 3.5 0 003.5-3.5h-1zm0-8.848V16h1V7.152h-1zm.147-.354l-7.272 7.273.707.707 7.272-7.272-.707-.708zm-7.272 7.273a3.357 3.357 0 01-4.748 0l-.707.707a4.357 4.357 0 006.162 0l-.708-.707zm-4.748 0L2.354 6.798l-.707.707 7.273 7.273.707-.707zm12.097-7.754a1.36 1.36 0 00.318-.494l-.939-.345a.361.361 0 01-.086.132l.707.707zm-7.552 7.552l7.552-7.552-.707-.707-7.552 7.551.707.708zm-4.343 0a3.07 3.07 0 004.343 0l-.707-.707a2.071 2.071 0 01-2.93 0l-.706.707zM2.277 6.317l7.552 7.552.707-.707L2.984 5.61l-.707.707zm-.318-.495c.066.18.172.349.318.495l.707-.707a.361.361 0 01-.086-.132l-.939.344zM4.572 4a3.07 3.07 0 00-2.56 1.374l.833.553A2.069 2.069 0 014.572 5V4zm14.857 0H4.572v1h14.857V4zm2.56 1.374A3.069 3.069 0 0019.43 4v1c.72 0 1.355.367 1.727.927l.833-.553z" fill="#fff" fill-opacity=".3" mask="url(#a)"/></svg>